<svg width="75" height="45" viewBox="0 0 75 45" fill="none" xmlns="http://www.w3.org/2000/svg">
<g filter="url(#filter0_d_1487_83418)">
<rect x="4" y="11" width="67" height="28" rx="14" fill="#028D8A" shape-rendering="crispEdges"/>
<path d="M18.5352 30.1465C17.7852 30.1465 17.1758 30.0723 16.707 29.9238C16.2422 29.7754 15.8848 29.5684 15.6348 29.3027C15.3848 29.0332 15.2129 28.7168 15.1191 28.3535C15.0254 27.9902 14.9785 27.5918 14.9785 27.1582V24.3457C14.9785 23.9043 15.0234 23.498 15.1133 23.127C15.207 22.752 15.377 22.4258 15.623 22.1484C15.873 21.8711 16.2305 21.6562 16.6953 21.5039C17.1641 21.3477 17.7754 21.2695 18.5293 21.2695C19.2363 21.2695 19.8086 21.3398 20.2461 21.4805C20.6836 21.6172 21.0195 21.8145 21.2539 22.0723C21.4883 22.3301 21.6465 22.6387 21.7285 22.998C21.8145 23.3535 21.8574 23.75 21.8574 24.1875V24.2812L20.3516 24.4512V24.1055C20.3516 23.6641 20.2949 23.3281 20.1816 23.0977C20.0723 22.8672 19.8848 22.709 19.6191 22.623C19.3535 22.5371 18.9902 22.4941 18.5293 22.4941C18.0762 22.4941 17.7031 22.541 17.4102 22.6348C17.1172 22.7285 16.8984 22.8945 16.7539 23.1328C16.6094 23.3711 16.5371 23.707 16.5371 24.1406V27.3398C16.5371 27.7695 16.6094 28.0977 16.7539 28.3242C16.8984 28.5508 17.1191 28.707 17.416 28.793C17.7129 28.875 18.0898 28.916 18.5469 28.916C19.0039 28.916 19.3633 28.8809 19.625 28.8105C19.8867 28.7363 20.0723 28.5898 20.1816 28.3711C20.2949 28.1484 20.3516 27.8164 20.3516 27.375V27.1465H21.8574V27.2695C21.8574 27.6953 21.8184 28.084 21.7402 28.4355C21.6621 28.7871 21.5098 29.0898 21.2832 29.3438C21.0566 29.5977 20.7227 29.7949 20.2812 29.9355C19.8398 30.0762 19.2578 30.1465 18.5352 30.1465ZM23.668 21.1406H25.0977V24.334C25.25 24.1191 25.498 23.9453 25.8418 23.8125C26.1895 23.6758 26.584 23.6074 27.0254 23.6074C27.4668 23.6074 27.8359 23.6836 28.1328 23.8359C28.4297 23.9883 28.6523 24.1992 28.8008 24.4688C28.9531 24.7344 29.0293 25.0391 29.0293 25.3828V30H27.5996V25.5176C27.5996 25.2988 27.5449 25.1309 27.4355 25.0137C27.3262 24.8926 27.1836 24.8066 27.0078 24.7559C26.8359 24.7051 26.6504 24.6797 26.4512 24.6797C26.2051 24.6797 25.9785 24.7188 25.7715 24.7969C25.5684 24.8711 25.4043 24.9805 25.2793 25.125C25.1582 25.2656 25.0977 25.4355 25.0977 25.6348V30H23.668V21.1406ZM32.5215 30.1348C32.1309 30.1348 31.7949 30.0625 31.5137 29.918C31.2363 29.7695 31.0234 29.5664 30.875 29.3086C30.7305 29.0469 30.6582 28.752 30.6582 28.4238C30.6582 28.1191 30.7188 27.8555 30.8398 27.6328C30.9609 27.4062 31.1855 27.1992 31.5137 27.0117C31.8418 26.8203 32.3145 26.6309 32.9316 26.4434C33.2637 26.3379 33.5352 26.2422 33.7461 26.1562C33.957 26.0703 34.1113 25.9727 34.209 25.8633C34.3066 25.7539 34.3555 25.6133 34.3555 25.4414C34.3555 25.2734 34.3242 25.1289 34.2617 25.0078C34.2031 24.8867 34.0977 24.793 33.9453 24.7266C33.7969 24.6602 33.5879 24.627 33.3184 24.627C33.002 24.627 32.7637 24.666 32.6035 24.7441C32.4473 24.8184 32.3418 24.9199 32.2871 25.0488C32.2363 25.1777 32.2109 25.3262 32.2109 25.4941V25.7461H30.8633V25.5293C30.8633 24.9199 31.0664 24.4473 31.4727 24.1113C31.8828 23.7754 32.5098 23.6074 33.3535 23.6074C33.9551 23.6074 34.4316 23.6953 34.7832 23.8711C35.1348 24.043 35.3867 24.2891 35.5391 24.6094C35.6953 24.9258 35.7734 25.2988 35.7734 25.7285V28.2715C35.7734 28.5723 35.8105 28.7676 35.8848 28.8574C35.9629 28.9473 36.1113 28.9922 36.3301 28.9922L36.2422 30.0469H35.9434C35.5137 30.0469 35.1875 29.9805 34.9648 29.8477C34.7422 29.7109 34.5781 29.5098 34.4727 29.2441C34.3672 29.3887 34.2246 29.5293 34.0449 29.666C33.8652 29.8027 33.6484 29.9141 33.3945 30C33.1445 30.0898 32.8535 30.1348 32.5215 30.1348ZM32.9199 29.1504C33.0801 29.1504 33.2559 29.1191 33.4473 29.0566C33.6387 28.9902 33.8164 28.8984 33.9805 28.7812C34.1484 28.6641 34.2734 28.5234 34.3555 28.3594V26.748C34.2578 26.834 34.0957 26.9355 33.8691 27.0527C33.6465 27.166 33.3809 27.2754 33.0723 27.3809C32.6816 27.5098 32.4121 27.6504 32.2637 27.8027C32.1152 27.9551 32.041 28.1387 32.041 28.3535C32.041 28.627 32.1172 28.8281 32.2695 28.957C32.4219 29.0859 32.6387 29.1504 32.9199 29.1504ZM38.1465 28.0547V24.6855H37.2441V23.7363H38.1934L38.334 21.7441H39.5762V23.7363H41.0938V24.6855H39.5762V27.9492C39.5762 28.3477 39.6719 28.6172 39.8633 28.7578C40.0586 28.8945 40.4043 28.9629 40.9004 28.9629H41.1465L41.0645 30.0645H40.7246C40.1113 30.0645 39.6152 30.0039 39.2363 29.8828C38.8613 29.7617 38.5859 29.5547 38.4102 29.2617C38.2344 28.9648 38.1465 28.5625 38.1465 28.0547ZM45.1074 30L48.0605 21.4102H49.9473L52.9238 30H51.2891L48.9629 22.4707H49.1211L46.7305 30H45.1074ZM46.6367 28.3535L46.959 27.1641H51.084L51.3945 28.3535H46.6367ZM54.3535 28.8398H55.9414V22.5645H54.3535V21.4102H59.0703V22.5645H57.4883V28.8398H59.0703V30H54.3535V28.8398Z" fill="white"/>
<path d="M56.2616 2.9582L64.6499 20.8065L44.9987 19.1468L56.2616 2.9582Z" fill="#028D8A"/>
</g>
<defs>
<filter id="filter0_d_1487_83418" x="0" y="0.958984" width="75" height="44.041" filterUnits="userSpaceOnUse" color-interpolation-filters="sRGB">
<feFlood flood-opacity="0" result="BackgroundImageFix"/>
<feColorMatrix in="SourceAlpha" type="matrix" values="0 0 0 0 0 0 0 0 0 0 0 0 0 0 0 0 0 0 127 0" result="hardAlpha"/>
<feOffset dy="2"/>
<feGaussianBlur stdDeviation="2"/>
<feComposite in2="hardAlpha" operator="out"/>
<feColorMatrix type="matrix" values="0 0 0 0 0 0 0 0 0 0 0 0 0 0 0 0 0 0 0.2 0"/>
<feBlend mode="normal" in2="BackgroundImageFix" result="effect1_dropShadow_1487_83418"/>
<feBlend mode="normal" in="SourceGraphic" in2="effect1_dropShadow_1487_83418" result="shape"/>
</filter>
</defs>
</svg>
