<svg width="20" height="14" viewBox="0 0 20 14" fill="none" xmlns="http://www.w3.org/2000/svg">
<path d="M10 8C13.3137 8 16 9.34315 16 11C16 12.6569 13.3137 14 10 14C6.68629 14 4 12.6569 4 11C4 9.34315 6.68629 8 10 8ZM4.38184 8.01953C3.21094 8.81337 2.5 9.85756 2.5 11.001C2.50009 11.6491 2.72853 12.2656 3.13965 12.8223C1.29973 12.4533 0.000309003 11.5528 0 10.501C0 9.22495 1.91217 8.17183 4.38184 8.01953ZM15.6182 8.01953C18.0878 8.17183 20 9.22495 20 10.501C19.9997 11.5528 18.7003 12.4533 16.8604 12.8223C17.2715 12.2656 17.4999 11.6491 17.5 11.001C17.5 9.85756 16.7891 8.81337 15.6182 8.01953ZM5 2C5.20601 2 5.40479 2.03102 5.5918 2.08887C5.53133 2.38303 5.5 2.68794 5.5 3C5.5 3.94022 5.78815 4.81324 6.28125 5.53516C5.93419 5.82513 5.48763 6 5 6C3.89543 6 3 5.10457 3 4C3 2.89543 3.89543 2 5 2ZM10 0C11.6569 0 13 1.34315 13 3C13 4.65685 11.6569 6 10 6C8.34315 6 7 4.65685 7 3C7 1.34315 8.34315 0 10 0ZM15 2C16.1046 2.00002 17 2.89544 17 4C17 5.10456 16.1046 5.99998 15 6C14.5124 6 14.0658 5.82512 13.7188 5.53516C14.2118 4.81324 14.5 3.94022 14.5 3C14.5 2.68794 14.4687 2.38303 14.4082 2.08887C14.5952 2.03103 14.794 2 15 2Z" fill="#090E24"/>
</svg>
