<svg width="14" height="15" viewBox="0 0 14 15" fill="none" xmlns="http://www.w3.org/2000/svg">
<path d="M7.01069 0.533338C6.94951 0.531962 6.88855 0.541123 6.83048 0.560421L0.430478 2.69375C0.363975 2.7159 0.302487 2.75093 0.249524 2.79684C0.196561 2.84275 0.153162 2.89865 0.121806 2.96133C0.0904492 3.02402 0.0717498 3.09227 0.0667753 3.16219C0.0618009 3.2321 0.0706489 3.30231 0.092814 3.36881C0.114979 3.43531 0.150027 3.49678 0.195956 3.54973C0.241885 3.60268 0.297795 3.64606 0.360493 3.6774C0.423191 3.70873 0.491447 3.72741 0.561365 3.73236C0.631282 3.73731 0.70149 3.72844 0.767978 3.70625L6.99923 1.62917L13.2305 3.70625C13.297 3.72843 13.3672 3.73729 13.4371 3.73233C13.507 3.72737 13.5752 3.70869 13.6379 3.67735C13.7006 3.64602 13.7565 3.60264 13.8024 3.54969C13.8484 3.49675 13.8834 3.43527 13.9056 3.36878C13.9277 3.3023 13.9366 3.23209 13.9316 3.16218C13.9266 3.09227 13.9079 3.02403 13.8766 2.96134C13.8452 2.89866 13.8019 2.84277 13.7489 2.79685C13.696 2.75094 13.6345 2.71591 13.568 2.69375L7.16798 0.560421C7.1172 0.543556 7.06418 0.534426 7.01069 0.533338ZM4.33256 4.8C3.08812 4.8 1.49714 5.36042 1.49714 5.36042C1.39093 5.39586 1.29856 5.46382 1.23312 5.55469C1.16768 5.64555 1.1325 5.7547 1.13256 5.86667V6.54792C0.81489 6.7326 0.599228 7.07257 0.599228 7.46667V13.3333C0.599228 13.9227 1.07656 14.4 1.66589 14.4H6.07735C6.17081 14.5619 6.30517 14.6964 6.46696 14.79C6.62876 14.8836 6.81231 14.933 6.99923 14.9333C7.18632 14.9332 7.37009 14.8838 7.53208 14.7902C7.69408 14.6966 7.8286 14.562 7.92214 14.4H12.3326C12.9219 14.4 13.3992 13.9227 13.3992 13.3333V7.46667C13.3992 7.07257 13.1836 6.7326 12.8659 6.54792V5.86667C12.866 5.7547 12.8308 5.64555 12.7653 5.55469C12.6999 5.46382 12.6075 5.39586 12.5013 5.36042C12.5013 5.36042 10.9103 4.8 9.6659 4.8C8.53191 4.8 7.24266 5.22777 6.99923 5.31042C6.75579 5.22777 5.46655 4.8 4.33256 4.8ZM4.33256 5.86667C5.04445 5.86667 6.02666 6.14256 6.46589 6.27188V12.6156C5.92912 12.4628 5.10625 12.2667 4.33256 12.2667C3.54753 12.2667 2.77365 12.4551 2.19923 12.6198V6.29896C2.55802 6.19123 3.57342 5.86667 4.33256 5.86667ZM9.6659 5.86667C10.425 5.86667 11.4404 6.19123 11.7992 6.29896V12.6198C11.2248 12.4551 10.4509 12.2667 9.6659 12.2667C8.89221 12.2667 8.06934 12.4628 7.53256 12.6156V6.27188C7.9718 6.14256 8.95401 5.86667 9.6659 5.86667Z" fill="#606060"/>
</svg>
