<svg width="18" height="18" viewBox="0 0 18 18" fill="none" xmlns="http://www.w3.org/2000/svg">
<path d="M1.5 16.5H16.5M10.487 3.42643C10.487 3.42643 10.487 4.78861 11.8492 6.1508C13.2114 7.51299 14.5736 7.51299 14.5736 7.51299M5.09969 13.9901L7.96028 13.5814C8.37291 13.5225 8.7553 13.3313 9.05003 13.0365L15.9358 6.1508C16.6881 5.39848 16.6881 4.17874 15.9358 3.42642L14.5736 2.06424C13.8213 1.31192 12.6015 1.31192 11.8492 2.06424L4.96347 8.94997C4.66873 9.2447 4.47754 9.62709 4.41859 10.0397L4.00994 12.9003C3.91913 13.536 4.464 14.0809 5.09969 13.9901Z" stroke="#333333" stroke-width="1.5" stroke-linecap="round"/>
</svg>
