<svg width="16" height="16" viewBox="0 0 16 16" fill="none" xmlns="http://www.w3.org/2000/svg">
<path d="M8 1.98438L7.875 2.01562L2.375 3.51562L2 3.625V14H7.5V12H8.5V14H14V3.625L13.625 3.51562L8.125 2.01562L8 1.98438ZM8 3.01562L13 4.375V13H9.5V11H6.5V13H3V4.375L8 3.01562ZM4.5 5V6H5.5V5H4.5ZM6.5 5V6H7.5V5H6.5ZM8.5 5V6H9.5V5H8.5ZM10.5 5V6H11.5V5H10.5ZM4.5 7V8H5.5V7H4.5ZM6.5 7V8H7.5V7H6.5ZM8.5 7V8H9.5V7H8.5ZM10.5 7V8H11.5V7H10.5ZM4.5 9V10H5.5V9H4.5ZM6.5 9V10H7.5V9H6.5ZM8.5 9V10H9.5V9H8.5ZM10.5 9V10H11.5V9H10.5ZM4.5 11V12H5.5V11H4.5ZM10.5 11V12H11.5V11H10.5Z" fill="#5B5B5B"/>
</svg>
