<svg width="20" height="20" viewBox="0 0 20 20" fill="none" xmlns="http://www.w3.org/2000/svg">
<path d="M14.375 1.875V3.25195C14.1452 3.308 13.9321 3.37141 13.739 3.48022L12.7905 2.53174L11.9067 3.41553L12.8613 4.37012C12.7485 4.57358 12.6592 4.77744 12.6062 5H11.25V6.25H12.6062C12.6592 6.47256 12.7485 6.67642 12.8613 6.87988L11.9067 7.83447L12.7905 8.71826L13.739 7.76978C13.9321 7.87859 14.1452 7.942 14.375 7.99805V9.375H15.625V7.99805C15.8548 7.942 16.0679 7.87859 16.261 7.76978L17.2095 8.71826L18.0933 7.83447L17.1387 6.87988C17.2515 6.67642 17.3408 6.47256 17.3938 6.25H18.75V5H17.3938C17.3408 4.77744 17.2515 4.57358 17.1387 4.37012L18.0933 3.41553L17.2095 2.53174L16.261 3.48022C16.0679 3.37141 15.8548 3.308 15.625 3.25195V1.875H14.375ZM4.25415 2.12036L3.37036 3.00415L4.68262 4.31641L5.56641 3.43262L4.25415 2.12036ZM10.1965 2.52808C9.92138 2.51956 9.64424 2.53154 9.36768 2.56592C6.86518 2.84404 4.79523 4.8833 4.44336 7.41455C4.18148 9.3158 4.91503 11.2087 6.40503 12.4756C7.10065 13.0712 7.5 13.9461 7.5 14.8755V15V15.625V18.125H8.92456C9.14185 18.4966 9.54076 18.75 10 18.75C10.4594 18.75 10.8582 18.4968 11.0754 18.125H12.5V15.625V14.8755C12.5 14.0149 12.9621 13.1119 13.8171 12.3169C14.3265 11.8075 14.7299 11.2338 15.0293 10.6238C15.0199 10.6238 15.01 10.625 15 10.625C14.5513 10.625 14.1186 10.5598 13.7048 10.4492C13.4967 10.793 13.2473 11.1204 12.9504 11.4172C12.0048 12.2954 11.4254 13.3294 11.2842 14.375H8.72192C8.59817 13.27 8.06614 12.2509 7.21802 11.5234C6.03552 10.5184 5.4749 9.08354 5.68115 7.58667C5.9549 5.61417 7.56476 4.02487 9.51538 3.80737C9.79851 3.77175 10.0784 3.76728 10.354 3.7854C10.5215 3.3629 10.7444 2.9704 11.0144 2.61353C10.7447 2.56571 10.4717 2.53659 10.1965 2.52808ZM15 4.375C15.4687 4.375 15.7408 4.52828 15.9387 4.75098C16.1367 4.97368 16.25 5.29514 16.25 5.625C16.25 5.95486 16.1367 6.27632 15.9387 6.49902C15.7408 6.72172 15.4687 6.875 15 6.875C14.5313 6.875 14.2592 6.72172 14.0613 6.49902C13.8633 6.27632 13.75 5.95486 13.75 5.625C13.75 5.29514 13.8633 4.97368 14.0613 4.75098C14.2592 4.52828 14.5313 4.375 15 4.375ZM1.25 8.125V9.375H3.125V8.125H1.25ZM4.68262 13.1836L3.37036 14.4958L4.25415 15.3796L5.56641 14.0674L4.68262 13.1836ZM15.3174 13.1836L14.4336 14.0674L15.7458 15.3796L16.6296 14.4958L15.3174 13.1836ZM8.75 15.625H11.25V16.875H8.75V15.625Z" fill="#4A4A4A"/>
</svg>
