<svg width="20" height="20" viewBox="0 0 20 20" fill="none" xmlns="http://www.w3.org/2000/svg">
<path d="M6.92338 3.21875C3.17939 3.21875 0.144531 6.25361 0.144531 9.9976C0.144531 13.7416 3.17939 16.7764 6.92338 16.7764C7.6896 16.7764 8.42278 16.6502 9.11088 16.4159C8.29057 15.9081 7.56641 15.244 6.99549 14.4688C6.96845 14.4688 6.95042 14.4688 6.92338 14.4688C4.45943 14.4688 2.45222 12.4645 2.45222 9.9976C2.45222 7.53065 4.45943 5.52644 6.92338 5.52644C9.38732 5.52644 11.3945 7.53365 11.3945 9.9976C11.3945 10.9952 11.058 11.9207 10.5051 12.6659C11.067 13.2097 11.8032 13.5493 12.6205 13.6514C13.2996 12.5968 13.7022 11.3468 13.7022 9.9976C13.7022 6.25361 10.6674 3.21875 6.92338 3.21875ZM13.0772 3.21875C12.311 3.21875 11.5778 3.34495 10.8897 3.57933C11.71 4.08714 12.4342 4.7512 13.0051 5.52644C13.0322 5.52344 13.0502 5.52644 13.0772 5.52644C15.5412 5.52644 17.5484 7.53065 17.5484 9.9976C17.5484 12.4645 15.5412 14.4688 13.0772 14.4688C10.6133 14.4688 8.60607 12.4615 8.60607 9.9976C8.60607 9 8.94261 8.07452 9.49549 7.32933C8.93359 6.78546 8.19742 6.44591 7.38011 6.34375C6.70102 7.39844 6.29838 8.64844 6.29838 9.9976C6.29838 13.7416 9.33323 16.7764 13.0772 16.7764C16.8212 16.7764 19.8561 13.7416 19.8561 9.9976C19.8561 6.25361 16.8212 3.21875 13.0772 3.21875Z" fill="#4A4A4A"/>
</svg>
