<svg width="21" height="20" viewBox="0 0 21 20" fill="none" xmlns="http://www.w3.org/2000/svg">
<path d="M3.25 0C1.46 0 0 1.46 0 3.25V12.75C0 14.54 1.46 16 3.25 16H9.86523L9.875 15.9697C9.99 15.5647 10.2099 15.1945 10.5049 14.8945L10.9004 14.5H3.25C2.285 14.5 1.5 13.715 1.5 12.75V5.50781L9.64355 9.91016C9.75305 9.9693 9.87555 10.0003 10 10.0003C10.1245 10.0003 10.2469 9.9693 10.3564 9.91016L18.5 5.50781V8.00977C18.585 8.00477 18.6651 8 18.7451 8H18.7549C19.1899 8 19.61 8.08512 20 8.24512V3.25C20 1.46 18.54 0 16.75 0H3.25ZM3.25 1.5H16.75C17.715 1.5 18.5 2.285 18.5 3.25V3.80273L10 8.39746L1.5 3.80273V3.25C1.5 2.285 2.285 1.5 3.25 1.5ZM18.749 9C18.612 9.0005 18.4735 9.01259 18.334 9.03809C17.892 9.11759 17.4698 9.34808 17.1133 9.70508L11.2139 15.6045C11.0354 15.783 10.904 16.0056 10.834 16.2471L10.0488 18.9873C10.0128 19.0823 9.9965 19.1827 10 19.2832C10.0065 19.4647 10.0778 19.6442 10.2168 19.7832C10.3553 19.9217 10.5338 19.993 10.7148 20C10.8153 20.0035 10.9172 19.9877 11.0127 19.9512L13.7529 19.166C13.9944 19.096 14.2155 18.9651 14.3945 18.7861L20.2949 12.8867C20.6519 12.5302 20.8824 12.108 20.9619 11.666C20.9869 11.5265 20.9985 11.388 20.999 11.251C21.0005 10.654 20.7703 10.0897 20.3398 9.66016C19.9103 9.23016 19.346 8.999 18.749 9Z" fill="#777777"/>
</svg>
