<svg width="19" height="20" viewBox="0 0 19 20" fill="none" xmlns="http://www.w3.org/2000/svg">
<path d="M9.88047 17.0636L9.35014 17.594L9.88047 17.0636ZM1.7103 8.89347L2.24063 8.36314L1.7103 8.89347ZM16.5889 11.0091L16.0022 10.5419L16.5889 11.0091ZM14.1191 14.1113L14.7058 14.5785L14.1191 14.1113ZM4.66261 4.65488L4.19547 4.06812L4.66261 4.65488ZM7.76487 2.18504L8.23201 2.77179L7.76487 2.18504ZM2.66691 5.42659L2.60683 4.679L2.66691 5.42659ZM13.3474 16.107L12.5998 16.047L13.3474 16.107ZM17.0358 4.94838L16.5054 4.41805C16.2787 4.64474 16.2212 4.99044 16.3622 5.27833L17.0358 4.94838ZM17.1091 4.87504L16.5788 4.34471L16.5788 4.34471L17.1091 4.87504ZM13.8256 1.73819L13.4956 2.41171C13.7835 2.55275 14.1292 2.49521 14.3559 2.26852L13.8256 1.73819ZM13.8989 1.66485L14.4292 2.19518L14.4292 2.19518L13.8989 1.66485ZM8.9343 19.3181C9.31135 19.1467 9.478 18.702 9.30653 18.3249C9.13505 17.9479 8.69038 17.7812 8.31332 17.9527L8.62381 18.6354L8.9343 19.3181ZM5.06388 14.7033C5.23536 14.3262 5.06871 13.8815 4.69166 13.7101C4.31461 13.5386 3.86994 13.7052 3.69846 14.0823L4.38117 14.3928L5.06388 14.7033ZM9.88047 17.0636L10.4108 16.5333L2.24063 8.36314L1.7103 8.89347L1.17997 9.4238L9.35014 17.594L9.88047 17.0636ZM16.5889 11.0091L16.0022 10.5419L13.5323 13.6442L14.1191 14.1113L14.7058 14.5785L17.1757 11.4762L16.5889 11.0091ZM4.66261 4.65488L5.12975 5.24163L8.23201 2.77179L7.76487 2.18504L7.29773 1.59828L4.19547 4.06812L4.66261 4.65488ZM2.66691 5.42659L2.72699 6.17418C3.61478 6.10284 4.44844 5.78406 5.12975 5.24163L4.66261 4.65488L4.19547 4.06812C3.75932 4.41536 3.21271 4.63031 2.60683 4.679L2.66691 5.42659ZM14.1191 14.1113L13.5323 13.6442C12.9899 14.3255 12.6711 15.1592 12.5998 16.047L13.3474 16.107L14.0949 16.1671C14.1436 15.5612 14.3586 15.0146 14.7058 14.5785L14.1191 14.1113ZM1.7103 8.89347L2.24063 8.36314C1.77745 7.89996 1.67888 7.34325 1.79414 6.92554C1.9054 6.52229 2.21681 6.21518 2.72699 6.17418L2.66691 5.42659L2.60683 4.679C1.43 4.77358 0.61667 5.55348 0.348171 6.52656C0.0836611 7.48518 0.350291 8.59413 1.17997 9.4238L1.7103 8.89347ZM9.88047 17.0636L9.35014 17.594C10.1798 18.4237 11.2888 18.6903 12.2474 18.4258C13.2205 18.1573 14.0004 17.3439 14.0949 16.1671L13.3474 16.107L12.5998 16.047C12.5588 16.5571 12.2517 16.8685 11.8484 16.9798C11.4307 17.0951 10.874 16.9965 10.4108 16.5333L9.88047 17.0636ZM17.0358 4.94838L17.5661 5.47871L17.6394 5.40537L17.1091 4.87504L16.5788 4.34471L16.5054 4.41805L17.0358 4.94838ZM16.5889 11.0091L17.1757 11.4762C18.7179 9.53903 18.8103 6.86585 17.7093 4.61843L17.0358 4.94838L16.3622 5.27833C17.2537 7.09808 17.1234 9.13353 16.0022 10.5419L16.5889 11.0091ZM13.8256 1.73819L14.3559 2.26852L14.4292 2.19518L13.8989 1.66485L13.3686 1.13452L13.2952 1.20786L13.8256 1.73819ZM7.76487 2.18504L8.23201 2.77179C9.64041 1.6505 11.6759 1.52025 13.4956 2.41171L13.8256 1.73819L14.1555 1.06467C11.9081 -0.0363042 9.23492 0.0560071 7.29773 1.59828L7.76487 2.18504ZM17.1091 1.66485L16.5788 2.19518C17.1723 2.78876 17.1723 3.75113 16.5788 4.34471L17.1091 4.87504L17.6394 5.40537C18.8188 4.22601 18.8188 2.31388 17.6394 1.13452L17.1091 1.66485ZM17.1091 1.66485L17.6394 1.13452C16.4601 -0.0448403 14.5479 -0.0448409 13.3686 1.13452L13.8989 1.66485L14.4292 2.19518C15.0228 1.60161 15.9852 1.60161 16.5788 2.19518L17.1091 1.66485ZM8.62381 18.6354L8.31332 17.9527C7.47624 18.3334 6.38552 18.1649 5.61861 17.398L5.08828 17.9283L4.55795 18.4586C5.74976 19.6505 7.50598 19.9677 8.9343 19.3181L8.62381 18.6354ZM5.08828 17.9283L5.61861 17.398C4.85169 16.6311 4.68319 15.5403 5.06388 14.7033L4.38117 14.3928L3.69846 14.0823C3.04888 15.5106 3.36614 17.2668 4.55795 18.4586L5.08828 17.9283Z" fill="#777777"/>
</svg>
